<svg width="24" height="21" viewBox="0 0 24 21" fill="none" xmlns="http://www.w3.org/2000/svg">
<path fill-rule="evenodd" clip-rule="evenodd" d="M4.19067 5.08867C4.19067 2.27827 6.46894 0 9.27933 0C12.0897 0 14.368 2.27827 14.368 5.08867C14.368 7.89906 12.0897 10.1773 9.27933 10.1773C6.46894 10.1773 4.19067 7.89906 4.19067 5.08867ZM9.27933 1.796C7.46084 1.796 5.98667 3.27018 5.98667 5.08867C5.98667 6.90716 7.46084 8.38133 9.27933 8.38133C11.0978 8.38133 12.572 6.90716 12.572 5.08867C12.572 3.27018 11.0978 1.796 9.27933 1.796Z" fill="white"/>
<path fill-rule="evenodd" clip-rule="evenodd" d="M0 16.4633C0 13.9836 2.01024 11.9733 4.49 11.9733H4.89813C5.11903 11.9733 5.33854 12.0083 5.54853 12.0768L6.58484 12.4152C8.33568 12.9869 10.223 12.9869 11.9738 12.4152L13.0101 12.0768C13.2201 12.0083 13.4396 11.9733 13.6605 11.9733H14.0687C16.5484 11.9733 18.5587 13.9836 18.5587 16.4633V17.8861C18.5587 18.788 17.9051 19.5569 17.015 19.7023C11.8918 20.5387 6.66687 20.5387 1.54369 19.7023C0.653605 19.5569 0 18.788 0 17.8861V16.4633ZM4.49 13.7693C3.00214 13.7693 1.796 14.9755 1.796 16.4633V17.8861C1.796 17.9078 1.8117 17.9262 1.83308 17.9297C6.7646 18.7349 11.7941 18.7349 16.7256 17.9297C16.747 17.9262 16.7627 17.9078 16.7627 17.8861V16.4633C16.7627 14.9755 15.5565 13.7693 14.0687 13.7693H13.6605C13.629 13.7693 13.5976 13.7743 13.5676 13.7841L12.5313 14.1225C10.4182 14.8125 8.14044 14.8125 6.02736 14.1225L4.99105 13.7841C4.96105 13.7743 4.92969 13.7693 4.89813 13.7693H4.49Z" fill="white"/>
<path d="M19.4567 3.592C19.9526 3.592 20.3547 3.99405 20.3547 4.49V6.58533H22.45C22.9459 6.58533 23.348 6.98738 23.348 7.48333C23.348 7.97928 22.9459 8.38133 22.45 8.38133H20.3547V10.4767C20.3547 10.9726 19.9526 11.3747 19.4567 11.3747C18.9607 11.3747 18.5587 10.9726 18.5587 10.4767V8.38133H16.4633C15.9674 8.38133 15.5653 7.97928 15.5653 7.48333C15.5653 6.98738 15.9674 6.58533 16.4633 6.58533H18.5587V4.49C18.5587 3.99405 18.9607 3.592 19.4567 3.592Z" fill="white"/>
</svg>
