<svg width="324" height="59" viewBox="0 0 324 59" fill="none" xmlns="http://www.w3.org/2000/svg">
<path d="M25.1113 0.00390625C25.3726 0.00378651 25.6344 0.00169323 25.8955 0.00292969L25.9043 0.0117188C34.7375 0.115616 43.4059 1.01283 48.6055 2.66602C49.0951 2.82182 49.3975 3.30938 49.3535 3.82129L48.9326 8.55957C48.799 10.0108 48.6623 11.4248 48.5195 12.8037L42.7354 7.75781C42.7383 7.72629 42.7422 7.69466 42.7451 7.66309C38.3116 6.84318 32.2811 6.3288 25.8311 6.25293C25.7544 6.25201 25.6776 6.24779 25.6016 6.24414C25.4641 6.24449 25.321 6.24502 25.1143 6.24512H25.0713C24.8778 6.24388 24.8456 6.24288 24.7959 6.24219C24.7645 6.24278 24.7326 6.24501 24.7012 6.24512C17.8347 6.26843 11.3267 6.79117 6.61133 7.66309C6.77355 9.4312 6.93873 11.1239 7.11035 12.748C20.6543 10.9642 28.8566 10.7888 41.9922 12.5088L44.1914 12.9023L40.2676 18.0088C35.7765 17.4433 31.8955 17.116 28.1309 17.0166V48.0879L28.1318 48.0869V48.9004C31.2089 47.8913 33.5244 46.63 40.79 42.2852C37.3917 48.1181 32.4488 53.3601 25.0361 58.5498C25.0005 58.5749 24.9708 58.6106 24.9531 58.6504C24.8995 58.7704 24.7586 58.8205 24.6416 58.7734L24.5938 58.7471C5.34982 45.3902 2.55815 31.7319 0.426758 8.58105L0.00390625 3.82227C-0.0402358 3.31035 0.262447 2.82298 0.751953 2.66699C6.19198 0.937273 15.4287 0.0353085 24.6797 0.00390625L24.6836 0C24.826 0.000507632 24.9689 0.00299691 25.1113 0.00390625ZM21.8896 17.0586C17.6227 17.2261 13.1555 17.6728 7.78223 18.3818C8.57632 24.2184 9.61174 29.1119 11.2812 33.5088C13.3634 38.992 16.5123 43.869 21.8896 48.7051V17.0586Z" fill="white"/>
<path d="M41.4824 29.4136C41.4824 20.9768 48.3223 14.137 56.759 14.137H82.0892L77.8289 20.7377L56.759 20.9458C52.0827 20.9458 48.2912 24.7372 48.2912 29.4136C48.2915 34.0897 52.0829 37.8803 56.759 37.8803H82.0892L77.8289 44.481L56.759 44.6891C48.3225 44.6891 41.4827 37.8501 41.4824 29.4136Z" fill="white"/>
<path d="M119.665 44.6811L119.665 17.4417L87.6574 17.4416L87.6574 44.6811" stroke="white" stroke-width="6.80876"/>
<path d="M225.842 17.4055L225.842 44.7854" stroke="#2CA6FD" stroke-width="6.80876"/>
<path d="M205.859 20.8624L209.937 14.1489L245.825 14.1489L241.747 20.8624L205.859 20.8624Z" fill="#2CA6FD"/>
<path d="M130.882 13.9935L130.882 44.5207" stroke="white" stroke-width="6.80876"/>
<path d="M129.943 20.6361L133.978 13.9945L164.469 13.9945L158.871 20.6361L129.943 20.6361Z" fill="white"/>
<path d="M129.943 44.6108L133.978 37.9692L164.469 37.9692L158.533 44.6108L129.943 44.6108Z" fill="white"/>
<path d="M131.078 33.0588L131.078 26.25L161.569 26.25L156.056 33.0588L131.078 33.0588Z" fill="white"/>
<path d="M249.758 13.9935L249.758 44.5207" stroke="#2CA6FD" stroke-width="6.80876"/>
<path d="M248.82 20.6361L252.855 13.9945L283.346 13.9945L277.748 20.6361L248.82 20.6361Z" fill="#2CA6FD"/>
<path d="M248.82 44.6096L252.855 37.968L283.346 37.968L277.41 44.6096L248.82 44.6096Z" fill="#2CA6FD"/>
<path d="M249.956 33.0588L249.956 26.25L280.447 26.25L274.934 33.0588L249.956 33.0588Z" fill="#2CA6FD"/>
<path d="M169.592 13.9369V41.2039H199.9V13.9369" stroke="white" stroke-width="6.80876"/>
<path d="M200.551 38.5635H209.253L201.978 51.9992H193.275L200.551 38.5635Z" fill="white"/>
<path d="M283.402 14.079H293.632L323.187 44.6941H312.957L283.402 14.079Z" fill="#2CA6FD"/>
<path d="M323.187 14.079H312.957L283.402 44.6941H293.632L323.187 14.079Z" fill="#2CA6FD"/>
</svg>
