<svg width="27" height="26" viewBox="0 0 27 26" fill="none" xmlns="http://www.w3.org/2000/svg">
<path fill-rule="evenodd" clip-rule="evenodd" d="M13.2878 25.8277C10.7348 25.8277 9.5482 25.4554 7.48574 23.9644C6.18092 25.6416 2.05113 26.9529 1.86982 24.7091C1.86982 23.0255 1.49747 21.6024 1.07494 20.0499C0.571468 18.1364 0 16.006 0 12.9187C0.00161889 5.54631 6.05141 0 13.2198 0C20.3883 0 26.0155 5.8199 26.0155 12.9883C26.0398 20.0451 20.3446 25.7905 13.2878 25.8277ZM13.3947 6.37356C9.90436 6.19387 7.18301 8.60925 6.58078 12.3991C6.08378 15.5365 6.96608 19.3554 7.71724 19.5546C8.07825 19.642 8.98483 18.9086 9.54982 18.3436C10.4839 18.9896 11.5734 19.3765 12.705 19.4688C16.3216 19.642 19.4137 16.8882 19.6565 13.2749C19.7974 9.65343 17.0129 6.58726 13.3947 6.38004V6.37356Z" fill="white"/>
</svg>
