<svg width="23" height="23" viewBox="0 0 23 23" fill="none" xmlns="http://www.w3.org/2000/svg">
<path d="M8.60544 21.27C7.59776 21.92 6.39697 22.2033 5.20497 22.0723C4.01299 21.9411 2.90249 21.4036 2.06022 20.55L1.32388 19.83C1.00106 19.4997 0.820312 19.0564 0.820312 18.5946C0.820312 18.1329 1.00106 17.6893 1.32388 17.3592L4.44922 14.2666C4.77666 13.9448 5.21737 13.7645 5.67646 13.7645C6.13554 13.7645 6.57626 13.9448 6.90368 14.2666C7.23387 14.5894 7.67732 14.7701 8.1391 14.7701C8.60088 14.7701 9.04431 14.5894 9.3745 14.2666L14.2834 9.35765C14.4472 9.19627 14.5772 9.00395 14.666 8.79186C14.7547 8.57978 14.8005 8.35216 14.8005 8.12225C14.8005 7.89233 14.7547 7.66472 14.666 7.45262C14.5772 7.24054 14.4472 7.04821 14.2834 6.88683C13.9616 6.55941 13.7813 6.11868 13.7813 5.65961C13.7813 5.20052 13.9616 4.75981 14.2834 4.43237L17.3924 1.32339C17.7226 1.00057 18.166 0.819824 18.6277 0.819824C19.0897 0.819824 19.533 1.00057 19.8633 1.32339L20.5833 2.05974C21.4368 2.902 21.9743 4.0125 22.1054 5.20449C22.2366 6.39649 21.9533 7.59727 21.3031 8.60495C17.9159 13.5969 13.6061 17.8956 8.60544 21.27Z" stroke="white" stroke-width="1.63973" stroke-linecap="round" stroke-linejoin="round"/>
</svg>
